<?xml version="1.0" encoding="utf-8"?>
<!-- Generator: Adobe Illustrator 16.0.0, SVG Export Plug-In . SVG Version: 6.00 Build 0)  -->
<!DOCTYPE svg PUBLIC "-//W3C//DTD SVG 1.1//EN" "http://www.w3.org/Graphics/SVG/1.1/DTD/svg11.dtd">
<svg version="1.1" id="图层_2" xmlns="http://www.w3.org/2000/svg" xmlns:xlink="http://www.w3.org/1999/xlink" x="0px" y="0px"
	 width="2243px" height="748px" viewBox="0 0 2243 748" enable-background="new 0 0 2243 748" xml:space="preserve">
<g>
	<g>
		<g>
			<path fill="#FAFAE6" d="M1689.803,201.458c0,0,12.122,20.431,14.938,33.349c-15.038-0.887-23.318-5.386-23.318-5.386
				s-14.178-4.506-18.771-14.631c-4.606-10.11-3.645-16.034-2.444-19.849c1.236-3.823,6.791-8.992,11.294-9.497
				c4.54-0.48,8.2,0.79,8.2,0.79s-0.521-9.098,8.5-10.389c9.004-1.323,21.207,3.548,24.168,14.906c0,0,3.295,8.836,2.05,19.357
				c-1.245,10.515-2.804,17.419-3.705,18.514C1709.073,224.926,1698.533,207.828,1689.803,201.458z"/>
			<path fill="#FAFAE6" d="M1789.564,364.08c-7.113,0.716-17.513,0.685-30.978-0.016c-10.159-0.529-18.204-0.864-24.113-1.028
				v-35.43c17.183,0.454,34.717,0,44.244-1.36l-1.065-24.881c-16.714,0.615-34.008,0.447-43.178-0.41v-28.172h-26.033v27.486
				c-17.601,0.079-31.29,0.455-40.762,1.107l-0.465,24.869c9.007,1.383,22.461,1.86,41.229,1.36v35.37
				c-12.63,0.066-22.588,0.455-29.314,1.089h-30.088v24.943h59.402v60.457h26.032v-60.457h61.585v-25.578L1789.564,364.08z"/>
			<path fill="#FAFAE6" d="M1719.331,263.666c9.99,0.238,19.085,0.365,27.293,0.365c16.387,0,25.316-0.471,34.873-1.45l5.063-0.493
				v-23.501h-38.742c6.874-13.811,17.554-28.262,23.497-43.041l1.997-5.021l-21.216-9.646l-2.572,4.428
				c-11.896,20.468-21.418,38.353-28.357,53.28h-66.625v23.401l4.987,0.594C1671.731,264.02,1692.374,264.363,1719.331,263.666z"/>
			<path fill="#FAFAE6" d="M1954.892,269.668c-9.349,47.93-14.418,102.643-22.722,162.652l-0.715,5.338l22.483,5.085l1.343-5.666
				c11.069-47.063,16.133-102.292,22.611-164.145l0.611-5.673L1954.892,269.668z"/>
			<path fill="#FAFAE6" d="M1924.759,392.675l-4.242-23.272l-38.511,8.586v-44.542c0.492-13.399,0.833-29.198,0.984-37.413
				l34.391-1.085v-24.598l-34.391-1.097c-0.194-7.532-0.492-21.457-0.984-33.886v-45.027h-28.247v78.821
				c-8.625,0.173-24.445,0.492-30.9,1.028l-5.398,0.459v23.784l5.129,0.642c7.82,0.979,20.659,1.186,30.066,1.186h1.103v87.347
				c-13.09,3.223-26.287,6.131-39.279,8.724l0.066,25.666l5.354-0.901c30.64-5.087,98.836-22.999,99.426-23.134L1924.759,392.675z"
				/>
			<path fill="#FAFAE6" d="M2022.806,304.651h-36.649v24.964h52.303c-2.386,32.034-0.715,58.57-1.521,79.089
				c-12.106-2.641-24.607-3.99-37.236-3.99h-5.338l-2.281,22.76h6.509c0.365,0,1.468,0.089,3.846,0.859
				c22.827,6.626,41.166,11.128,54.548,13.364l6.382,1.046l0.462-6.435c2.93-41.068,2.572-83.217,5.529-126.464l0.426-6.291h-6.309
				C2045.192,303.554,2031.372,303.933,2022.806,304.651z"/>
			<rect x="1917.379" y="229.72" fill="#FAFAE6" width="171.2" height="27.143"/>
			<path fill="#FAFAE6" d="M1537.924,271.117c-0.148,8.514-0.493,20.751-1.052,36.813v65.261h57.674h0.097
				c20.434-0.731,36.148-1.12,47.092-1.12h5.859v-5.857c0-11.03-0.373-29.03-1.095-54.075c-0.716-22.39-0.716-38.464,0-47.744
				l0.5-6.321h-34.703c9.953-17.085,17.064-29.585,21.426-37.505l4.704-8.674h-9.892c-11.898,0-20.658,0.377-25.295,1.096h-23.095
				c4.137-6.255,8.363-12.775,12.681-19.577l3.258-5.158l-23.147-13.489l-3.094,4.439c-26.019,37.167-42.27,61.384-49.739,74.065
				l-2.744,4.692l19.928,13.948L1537.924,271.117L1537.924,271.117z M1564.023,347.157L1564.023,347.157v-19.052h14.65v19.052
				H1564.023L1564.023,347.157z M1605.824,302.048L1605.824,302.048v-17.996c4.127,0.422,8.938,0.544,14.625,0.342v62.764h-14.625
				v-19.95c1.325-0.126,2.899-0.203,5.323-0.203h5.874v-24.955L1605.824,302.048L1605.824,302.048z M1593.545,236.82
				L1593.545,236.82c-2.57,4.861-5.814,10.695-9.632,17.507c-1.139,1.895-2.095,3.504-2.837,4.839h-13.601v23.844h11.199v19.037
				h-14.65v-43.976h-15.736c9.138-11.939,18.914-25.701,29.29-41.204v19.954L1593.545,236.82L1593.545,236.82z"/>
			<path fill="#FAFAE6" d="M1647.116,382.015l-6.695,1.565c-9.526,2.201-23.021,5.115-40.622,8.767
				c-27.069,5.874-50.135,10.608-69.138,14.277l-0.111,29.58l6.076-1.647c7.992-2.185,20.009-5.084,35.709-8.669
				c30.229-5.159,54.51-10.399,72.133-15.544l4.57-1.342L1647.116,382.015z"/>
			<path fill="#FAFAE6" d="M1373.189,355.043l3.652-3.924l-16.9-16.941l-3.952,3.448c-5.598,4.907-29.648,26.527-72.236,64.92
				l-3.906,3.527l14.955,18.703l4.316-3.071C1323.712,404.171,1348.625,381.739,1373.189,355.043z"/>
			<path fill="#FAFAE6" d="M1343.854,306.353c1.356-1.483,2.715-2.934,4.084-4.429l3.982-4.35l-19.474-17.519l-23.519,23.568
				c-24.021,23.274-41.757,41.032-52.692,52.699l-3.646,3.894l16.083,18.131l4.366-3.714c22.201-18.961,44.686-40.502,66.938-64.153
				v21.758h86.723l-3.101,3.266c-28.002,29.491-54.829,56.665-79.686,80.773l17.877,19.457
				c32.823-29.878,60.548-57.64,82.474-82.472l4.018-4.543l-20.105-16.48h46.416c-1.724,13.516-2.893,45.266-7.403,77.659
				c-12.854-1.148-23.64-1.724-32.178-1.724h-5.336l-4.845,18.743l5.008,1.117c6.763,1.499,19.869,3.368,38.729,5.539l21.075,3.035
				l15.052-130.255h-160.842v-0.002H1343.854z"/>
			<path fill="#FAFAE6" d="M1998.114,188.333c0,0-0.027,23.773-4.188,36.317c-12.466-8.446-17.267-16.572-17.267-16.572
				s-9.916-11.104-8.684-22.154c1.206-11.023,5.046-15.646,8.043-18.296c2.989-2.668,10.423-4.268,14.537-2.407
				c4.167,1.916,6.672,4.86,6.672,4.86s4.181-8.065,12.599-4.6c8.402,3.493,16.422,13.914,13.156,25.19
				c0,0-1.669,9.269-8.117,17.673c-6.465,8.407-11.31,13.533-12.643,14.048C2002.685,218.374,2002.378,198.275,1998.114,188.333z"/>
			<path fill="#FAFAE6" d="M1318.113,286.422c-2.661-0.107-5.391-0.253-8.061-0.253h-5.308v-5.308c0-17.267,0-34.539,0-51.809
				c0-14.5,0-29.001,0-43.5v-5.305h25.115v5.305c0,5.422,0,10.844,0,16.262c0.425,3.636,0.611,7.339,0.754,10.989
				c0.141,3.646,0.208,7.291,0.245,10.944c23.789,0,47.577,0,71.367,0h5.308v23.817l-5.024,0.27
				c-15.587,0.832-31.274,1.025-46.877,1.025h-0.142l-0.141-0.012c-8.187-0.436-16.447-0.839-24.661-0.969
				c-0.196,2.823-0.502,5.647-0.827,8.409c0,1.808,0,3.612,0,5.42c0.573-0.025,1.155-0.048,1.729-0.07
				c4.175-0.161,8.356-0.25,12.531-0.321c13.5-0.231,27.008-0.262,40.51-0.262c12.383,0,25.16,0.041,37.521,1.018
				c4.72,0,9.437,0,14.156,0c0-7.898,0-15.797,0-23.695c0-8.488,0-16.975,0-25.463c-2.563,0.201-5.121,0.444-7.669,0.688
				l-0.255,0.022h-0.253c-9.668,0-19.332,0-28.999,0c-9.67,0-19.333,0-29,0h-0.137l-0.134-0.004
				c-5.336-0.271-10.677-0.536-16.013-0.757c-2.848-0.118-5.748-0.252-8.61-0.252h-5.3v-24.099h5.3c20.045,0,40.083,0,60.124,0
				c17.272,0,34.54,0,51.81,0h5.309v5.309c0,14.854,0,29.707,0,44.558c0,14.16,0,28.321,0,42.482v4.609l-4.563,0.646
				c-3.444,0.489-6.992,0.709-10.458,0.885c-5.196,0.265-10.406,0.383-15.611,0.454c-15.745,0.224-31.527,0.02-47.271-0.268
				C1348.148,287.186,1347.201,287.189,1318.113,286.422z"/>
		</g>
		<path fill="#EF8200" d="M831.989,236.063c108.808,97.958-34.188,294.307-160.119,233.441
			c-170.919-82.585-27.054-357.894,135.668-251.05c0,0,21.251-35.014,50.298-35.367c7.421-0.097,13.162,4.401,15.483,7.284
			c4.348,5.427,10.964,11.965-0.045,22.354c-2.147,2.031-11.761,5.106-16.803,3.019c-4.231-1.748-12.859-5.812-22.302,1.442
			c0,0-8.833,6.262-9.366,11.977C824.572,231.77,830.764,234.536,831.989,236.063z"/>
		<path fill="#FAFAE6" d="M721.453,105.961c0,0,28.357,63.583,111.506,58.691l19.569-3.91c0,0-15.651-14.675-23.479-45.001
			c0,0-21.51-79.23-96.838-47.935c0,0-30.319,7.827-29.346,25.436C702.864,93.242,700.906,108.894,721.453,105.961z"/>
		<path fill="#FAFAE6" d="M558.122,266.014c-17.225,0-34.758,9.968-45.041,31.866l-0.762-28.376h-49.195l0.567,7.418
			c0.92,13.534,1.346,28.488,1.346,48.431v118.584h54.168v-92.023c0-24.491,14.212-39.687,37.181-39.687
			c4.093,0,7.563,0.283,10.652,0.786l8.118,1.397v-46.466l-5.814-0.988C565.847,266.405,562.556,266.014,558.122,266.014z"/>
		<g>
			<path fill="#FAFAE6" d="M979.906,335.821c-23.438-8.502-27.348-12.626-27.348-18.552c0-7.675,8.167-12.666,20.813-12.666
				c16.031,0,28.582,5.774,33.219,8.257l7,3.734l14.049-37.862l-5.762-2.753c-13.377-6.333-31.017-9.967-48.506-9.967
				c-42.422,0-73.255,23.113-73.255,54.999c0,23.036,18.043,40.719,53.571,52.639c24.399,8.632,26.286,14.188,26.286,20.515
				c0,12.675-17.439,14.061-25.009,14.061c-14.411,0-30.793-5.04-40.607-10.005l-7.021-3.593l-13.821,38.259l5.55,2.729
				c14.489,7.238,35.124,11.555,55.203,11.555c48.442,0,78.51-21.56,78.51-56.165
				C1032.777,357.666,1002.543,343.462,979.906,335.821z"/>
			<path fill="#FAFAE6" d="M1160.501,266.014c-17.124,0-36.29,6.494-46.159,24.072v-93.749h-51.47v247.6h51.47V338.781
				c0-19.327,16.392-30.919,32.33-30.919c18.57,0,28.029,11.868,28.029,35.281v100.792h51.508v-103.95
				C1226.209,285.415,1192.252,266.014,1160.501,266.014z"/>
		</g>
		<path fill="#FAFAE6" d="M434.787,193.152c-11.554,0-33.451,2.14-50.98,16.469c-21.243,17.779-23.741,41.758-24.018,59.882h-25.736
			v39.221h25.736v135.212h54.145V308.724h33.805v-39.221H413.55v-1.771c0-33.633,19.386-33.633,25.711-33.633
			c6.738,0,11.384,0.869,15.134,1.895v-40.913C448.194,193.906,441.739,193.152,434.787,193.152z"/>
		<path fill="#FAFAE6" d="M243.392,264.402c-52.446,0-89.068,38.192-89.068,92.9c0,54.443,35.933,88.258,93.675,88.258
			c22.614,0,44.721-3.713,60.561-10.123l5.564-2.267l-9.79-37.089l-6.667,2.499c-13.594,4.927-27.133,7.134-44.036,7.134
			c-16.585,0-43.749-4.896-48.24-35.939h114.693l0.888-5.776c0.744-4.533,1.134-9.573,1.134-15.428
			C322.104,307.869,301.432,264.402,243.392,264.402L243.392,264.402z M240.683,302.473L240.683,302.473
			c9.676,0,17.265,2.877,22.587,8.536c4.688,5.002,7.671,12.315,8.677,20.714h-65.322
			C209.49,320.685,217.862,302.473,240.683,302.473z"/>
		<path fill="#FFFFFF" d="M666.445,273.204c-37.211,36.959-36.282,89.854,2.277,128.671c38.353,38.632,87.67,37.305,128.646-3.385
			c16.055-15.939,29.123-34.142,35.848-49.851l2.354-5.529l-33.09-19.423l-2.974,6.479c-6.179,13.075-14.234,24.183-26.219,36.088
			c-11.768,11.688-34.497,27.352-59.55,8.484l81.381-80.807l-3.438-4.725c-2.662-3.745-5.942-7.598-10.064-11.753
			C752.933,248.58,707.641,232.299,666.445,273.204L666.445,273.204z M691.358,302.114L691.358,302.114
			c6.848-6.813,14.271-10.112,22.034-9.845c6.84,0.239,14.123,3.328,20.747,8.577l-46.344,46.029
			C682.055,337.025,675.168,318.199,691.358,302.114z"/>
	</g>
	<path fill="#FAFAE6" d="M324.287,582.4l-29.706,102.614h-31.45l-15.772-61.601c-1.046-4.152-1.613-8.398-1.677-12.738h-0.637
		c-0.442,4.909-1.078,8.998-1.965,12.36l-16.974,61.979h-31.069L165.809,582.4h30.627l14.915,68.089
		c0.636,2.722,1.107,6.454,1.488,11.241h0.667c0.284-4.587,0.883-8.448,1.74-11.62l18.368-67.71h28.407l16.407,68.183
		c0.441,1.869,0.915,5.636,1.392,11.303h0.757c0.193-3.251,0.703-7.024,1.587-11.303l14.284-68.183H324.287L324.287,582.4z
		 M492.3,582.4l-29.708,102.614h-31.45l-15.771-61.601c-1.044-4.152-1.614-8.398-1.677-12.738h-0.637
		c-0.443,4.909-1.078,8.998-1.961,12.36l-16.979,61.979h-31.067L333.82,582.4h30.627l14.914,68.089
		c0.635,2.722,1.109,6.454,1.491,11.241h0.664c0.282-4.587,0.886-8.448,1.738-11.62l18.367-67.71h28.409l16.41,68.183
		c0.443,1.869,0.916,5.636,1.394,11.303h0.757c0.19-3.251,0.699-7.024,1.587-11.303l14.283-68.183H492.3L492.3,582.4z
		 M660.311,582.4l-29.705,102.614h-31.447l-15.773-61.601c-1.044-4.152-1.611-8.398-1.68-12.738h-0.634
		c-0.443,4.909-1.075,8.998-1.964,12.36l-16.974,61.979h-31.067L501.834,582.4h30.624l14.916,68.089
		c0.637,2.722,1.11,6.454,1.492,11.241h0.663c0.284-4.587,0.887-8.448,1.74-11.62l18.369-67.71h28.411l16.406,68.183
		c0.443,1.869,0.916,5.636,1.392,11.303h0.758c0.189-3.251,0.699-7.024,1.587-11.303l14.283-68.183H660.311L660.311,582.4z
		 M677.54,671.548c0-4.624,1.776-8.424,5.289-11.399c3.52-2.975,7.728-4.466,12.606-4.466c4.972,0,9.125,1.522,12.543,4.561
		c3.39,3.007,5.1,6.806,5.1,11.305c0,4.784-1.71,8.619-5.1,11.563c-3.419,2.943-7.696,4.396-12.891,4.396
		c-4.846,0-8.962-1.515-12.386-4.53C679.252,679.945,677.54,676.142,677.54,671.548L677.54,671.548z M833.52,642.128h-67.553
		c1.045,15.898,10.641,23.847,28.757,23.847c11.306,0,21.314-2.755,29.962-8.328v21.983c-9.345,5.257-21.568,7.877-36.74,7.877
		c-16.309,0-29.012-4.586-38.065-13.806c-9.089-9.212-13.62-22.076-13.62-38.51c0-16.405,4.847-29.714,14.473-39.932
		c9.66-10.263,21.789-15.36,36.388-15.36c14.54,0,25.906,4.396,34.08,13.204c8.201,8.801,12.32,20.933,12.32,36.326L833.52,642.128
		L833.52,642.128z M815.806,623.413c0-15.359-6.239-23.023-18.655-23.023c-5.132,0-9.689,2.123-13.647,6.306
		c-3.959,4.207-6.429,9.779-7.413,16.718H815.806L815.806,623.413z M924.321,556.241c-4.086-1.616-7.948-2.439-11.594-2.439
		c-10.261,0-15.391,5.699-15.391,17.073v11.524h23.372v22.354h-23.372v80.26h-29.992v-80.26h-17.167v-22.354h17.167v-13.182
		c0-11.684,3.832-21.028,11.434-28.024c7.597-7.001,17.605-10.482,29.96-10.482c6.302,0,11.496,0.636,15.582,1.929L924.321,556.241
		L924.321,556.241z M997.621,609.568c-3.642-2.084-8.074-3.133-13.268-3.133c-6.813,0-12.196,2.597-16.187,7.791
		c-3.988,5.192-5.986,12.32-5.986,21.406v49.381h-29.959V582.4h29.959v19.291h0.382c4.938-14.033,13.937-21.068,26.984-21.068
		c3.545,0,6.239,0.41,8.074,1.207V609.568L997.621,609.568z M1104.055,642.128h-67.549c1.044,15.898,10.64,23.847,28.758,23.847
		c11.305,0,21.313-2.755,29.956-8.328v21.983c-9.344,5.257-21.564,7.877-36.735,7.877c-16.313,0-29.014-4.586-38.066-13.806
		c-9.09-9.212-13.621-22.076-13.621-38.51c0-16.405,4.848-29.714,14.474-39.932c9.661-10.263,21.79-15.36,36.387-15.36
		c14.54,0,25.907,4.396,34.08,13.204c8.201,8.801,12.319,20.933,12.319,36.326v12.7h-0.002V642.128z M1086.343,623.413
		c0-15.359-6.239-23.023-18.654-23.023c-5.132,0-9.69,2.123-13.648,6.306c-3.959,4.207-6.43,9.779-7.411,16.718H1086.343
		L1086.343,623.413z M1121.941,657.458c10.263,6.237,20.303,9.371,30.153,9.371c12.353,0,18.557-3.324,18.557-9.945
		c0-4.681-5.1-8.604-15.33-11.776c-12.731-3.963-21.47-8.36-26.252-13.206c-4.751-4.877-7.129-11.438-7.129-19.726
		c0-10.071,4.089-17.996,12.228-23.695c8.17-5.73,18.873-8.577,32.11-8.577c9.41,0,18.461,1.395,27.208,4.144v23.6
		c-7.98-4.718-16.789-7.064-26.38-7.064c-4.75,0-8.587,0.854-11.498,2.566c-2.913,1.674-4.366,3.923-4.366,6.709
		c0,4.69,4.334,8.525,13.017,11.405c9.275,3.103,16.244,5.921,20.9,8.455c4.681,2.532,8.234,5.854,10.672,10.009
		c2.439,4.15,3.67,8.967,3.67,14.38c0,10.578-4.245,18.811-12.699,24.633c-8.485,5.866-19.797,8.771-33.981,8.771
		c-11.113,0-21.407-1.768-30.88-5.289L1121.941,657.458L1121.941,657.458z M1306.267,685.014h-29.868v-58.467
		c0-15.771-5.762-23.656-17.255-23.656c-5.763,0-10.514,2.21-14.256,6.582c-3.731,4.407-5.603,10.104-5.603,17.074v58.466h-29.956
		V533.114h29.956v64.678h0.378c7.854-11.942,18.431-17.894,31.739-17.894c23.245,0,34.864,14.026,34.864,42.118V685.014
		L1306.267,685.014z M1323.876,653.757c9.6,7.151,20.783,10.766,33.57,10.766c8.115,0,14.539-1.807,19.322-5.384
		c4.753-3.615,7.128-8.713,7.128-15.328c0-6.812-2.817-12.006-8.492-15.582c-5.638-3.582-13.584-5.384-23.781-5.384h-12.794v-23.096
		h11.781c19.284,0,28.946-6.49,28.946-19.505c0-12.228-7.412-18.368-22.173-18.368c-9.659,0-19.029,3.166-28.122,9.472v-24.77
		c9.882-5.13,21.541-7.695,34.966-7.695c13.616,0,24.675,3.137,33.131,9.401c8.482,6.275,12.729,14.982,12.729,26.127
		c0,18.817-9.536,30.627-28.595,35.441v0.473c10.03,1.113,18.052,4.753,24.034,10.997c5.981,6.211,8.991,13.773,8.991,22.676
		c0,13.682-5.004,24.352-14.974,32.016c-9.979,7.665-23.31,11.494-39.941,11.494c-14.793,0-26.695-2.432-35.725-7.31
		L1323.876,653.757L1323.876,653.757z M1517.58,568.112c-7.287-4.152-15.234-6.235-23.847-6.235
		c-11.09,0-19.923,4.372-26.576,13.041c-6.646,8.683-9.97,19.922-9.97,33.735h0.537c6.869-10.514,17.033-15.77,30.53-15.77
		c12.063,0,21.627,4.118,28.725,12.376c7.088,8.272,10.608,19.006,10.608,32.245c0,14.467-4.597,26.417-13.808,35.852
		c-9.219,9.431-21.003,14.152-35.345,14.152c-16.474,0-29.079-5.921-37.817-17.792c-8.769-11.879-13.141-28.162-13.141-48.811
		c0-24.32,5.665-44.079,17.032-59.247c11.343-15.202,27.144-22.772,47.352-22.772c10.893,0,19.474,1.302,25.717,3.894
		L1517.58,568.112L1517.58,568.112z M1468.416,637.787c0,7.413,1.864,13.711,5.572,18.912c3.712,5.186,8.588,7.822,14.667,7.822
		c6.108,0,10.925-2.414,14.47-7.159c3.52-4.752,5.287-10.742,5.287-17.895c0-16.149-6.646-24.232-19.945-24.232
		c-6.024,0-10.838,2.131-14.54,6.401C1470.255,625.908,1468.416,631.299,1468.416,637.787L1468.416,637.787z M1541.687,655.303
		c9.944,6.142,20.334,9.219,31.165,9.219c8.421,0,15.105-2.1,20.048-6.243c4.933-4.145,7.401-9.812,7.401-17.073
		c0-14.854-10.281-22.258-30.878-22.258c-6.206,0-14.058,0.566-23.593,1.672v-79.327h78.42v24.673h-52.609v30.24
		c3.584-0.409,7.571-0.631,11.974-0.631c14.414,0,25.874,3.829,34.423,11.492c8.526,7.664,12.796,18.179,12.796,31.55
		c0,14.982-5.003,26.854-14.981,35.694c-10,8.802-23.27,13.198-39.838,13.198c-13.869,0-25.306-2.054-34.327-6.205V655.303
		L1541.687,655.303z M1652.899,671.548c0-4.624,1.774-8.424,5.289-11.399c3.519-2.975,7.727-4.466,12.606-4.466
		c4.972,0,9.124,1.522,12.541,4.561c3.393,3.007,5.096,6.806,5.096,11.305c0,4.784-1.703,8.619-5.096,11.563
		c-3.42,2.943-7.697,4.396-12.891,4.396c-4.845,0-8.959-1.515-12.385-4.53C1654.612,679.945,1652.899,676.142,1652.899,671.548
		L1652.899,671.548z M1789.553,681.209c-7.157,4.215-17.355,6.3-30.594,6.3c-15.677,0-28.313-4.746-37.974-14.279
		c-9.632-9.535-14.469-21.888-14.469-37.028c0-17.443,5.193-31.194,15.61-41.234c10.389-10.064,24.226-15.067,41.552-15.067
		c11.683,0,20.365,1.585,25.969,4.814v25.715c-6.843-5.043-14.349-7.537-22.457-7.537c-9.155,0-16.496,2.787-22.014,8.359
		c-5.543,5.573-8.327,13.205-8.327,22.929c0,9.378,2.627,16.782,7.886,22.196c5.257,5.415,12.414,8.146,21.444,8.146
		c7.981,0,15.771-2.573,23.373-7.641V681.209L1789.553,681.209z M1805.795,634.18c0-16.916,5.067-30.184,15.162-39.813
		c10.134-9.653,23.728-14.468,40.792-14.468c16.498,0,29.616,4.744,39.332,14.215c9.727,9.503,14.571,22.267,14.571,38.298
		c0,16.813-4.973,30.201-14.948,40.153c-9.943,9.97-23.438,14.943-40.44,14.943c-16.691,0-29.961-4.776-39.749-14.343
		C1810.697,663.639,1805.795,650.613,1805.795,634.18L1805.795,634.18z M1836.13,633.801c0,20.46,8.358,30.721,25.052,30.721
		c16.024,0,24.035-10.545,24.035-31.573c0-20.018-8.073-30.057-24.224-30.057c-7.855,0-13.934,2.691-18.306,8.074
		C1838.314,616.35,1836.13,623.951,1836.13,633.801L1836.13,633.801z M2088.677,685.014h-29.9v-58.563
		c0-15.708-5.697-23.563-17.161-23.563c-5.327,0-9.725,2.369-13.276,7.152c-3.513,4.752-5.289,10.577-5.289,17.452v57.52h-29.861
		v-59.296c0-15.232-5.668-22.828-16.977-22.828c-5.639,0-10.137,2.273-13.49,6.834c-3.394,4.534-5.068,10.548-5.068,18.03v57.259
		h-29.963V582.398h29.963v16.055h0.38c3.574-5.887,8.328-10.451,14.285-13.719c5.923-3.219,12.188-4.836,18.747-4.836
		c14.406,0,24.258,6.455,29.577,19.378c7.917-12.922,19.448-19.378,34.525-19.378c22.323,0,33.507,13.771,33.507,41.36
		L2088.677,685.014L2088.677,685.014z"/>
</g>
</svg>
